<mxfile host="app.diagrams.net" modified="2024-04-01T06:57:48.394Z" agent="Mozilla/5.0 (Windows NT 10.0; Win64; x64) AppleWebKit/537.36 (KHTML, like Gecko) Chrome/122.0.0.0 Safari/537.36 Edg/122.0.0.0" etag="B3lADqwUL_Zf6i4vAZJn" version="24.2.0" type="github">
  <diagram id="prtHgNgQTEPvFCAcTncT" name="Page-1">
    <mxGraphModel dx="2069" dy="587" grid="1" gridSize="10" guides="1" tooltips="1" connect="1" arrows="1" fold="1" page="1" pageScale="1" pageWidth="827" pageHeight="1169" math="0" shadow="0">
      <root>
        <mxCell id="0" />
        <mxCell id="1" parent="0" />
        <mxCell id="RcGWIeapa8aoR4nyQcu3-31" value="Threats" style="swimlane;fontStyle=1;align=center;verticalAlign=top;childLayout=stackLayout;horizontal=1;startSize=26;horizontalStack=0;resizeParent=1;resizeParentMax=0;resizeLast=0;collapsible=1;marginBottom=0;whiteSpace=wrap;html=1;" parent="1" vertex="1">
          <mxGeometry x="600" y="24" width="250" height="190" as="geometry" />
        </mxCell>
        <mxCell id="RcGWIeapa8aoR4nyQcu3-32" value="- _threats: verctor&amp;lt;Threat&amp;gt;" style="text;strokeColor=none;fillColor=none;align=left;verticalAlign=top;spacingLeft=4;spacingRight=4;overflow=hidden;rotatable=0;points=[[0,0.5],[1,0.5]];portConstraint=eastwest;whiteSpace=wrap;html=1;" parent="RcGWIeapa8aoR4nyQcu3-31" vertex="1">
          <mxGeometry y="26" width="250" height="26" as="geometry" />
        </mxCell>
        <mxCell id="RcGWIeapa8aoR4nyQcu3-33" value="" style="line;strokeWidth=1;fillColor=none;align=left;verticalAlign=middle;spacingTop=-1;spacingLeft=3;spacingRight=3;rotatable=0;labelPosition=right;points=[];portConstraint=eastwest;strokeColor=inherit;" parent="RcGWIeapa8aoR4nyQcu3-31" vertex="1">
          <mxGeometry y="52" width="250" height="8" as="geometry" />
        </mxCell>
        <mxCell id="RcGWIeapa8aoR4nyQcu3-34" value="+ AddThreatArea():&amp;nbsp;" style="text;strokeColor=none;fillColor=none;align=left;verticalAlign=top;spacingLeft=4;spacingRight=4;overflow=hidden;rotatable=0;points=[[0,0.5],[1,0.5]];portConstraint=eastwest;whiteSpace=wrap;html=1;" parent="RcGWIeapa8aoR4nyQcu3-31" vertex="1">
          <mxGeometry y="60" width="250" height="26" as="geometry" />
        </mxCell>
        <mxCell id="RcGWIeapa8aoR4nyQcu3-35" value="+ DeleteThreatArea():&amp;nbsp;" style="text;strokeColor=none;fillColor=none;align=left;verticalAlign=top;spacingLeft=4;spacingRight=4;overflow=hidden;rotatable=0;points=[[0,0.5],[1,0.5]];portConstraint=eastwest;whiteSpace=wrap;html=1;" parent="RcGWIeapa8aoR4nyQcu3-31" vertex="1">
          <mxGeometry y="86" width="250" height="26" as="geometry" />
        </mxCell>
        <mxCell id="RcGWIeapa8aoR4nyQcu3-36" value="+ ClearThreatArea():&amp;nbsp;" style="text;strokeColor=none;fillColor=none;align=left;verticalAlign=top;spacingLeft=4;spacingRight=4;overflow=hidden;rotatable=0;points=[[0,0.5],[1,0.5]];portConstraint=eastwest;whiteSpace=wrap;html=1;" parent="RcGWIeapa8aoR4nyQcu3-31" vertex="1">
          <mxGeometry y="112" width="250" height="26" as="geometry" />
        </mxCell>
        <mxCell id="RcGWIeapa8aoR4nyQcu3-37" value="+ isPointSafe():&amp;nbsp;" style="text;strokeColor=none;fillColor=none;align=left;verticalAlign=top;spacingLeft=4;spacingRight=4;overflow=hidden;rotatable=0;points=[[0,0.5],[1,0.5]];portConstraint=eastwest;whiteSpace=wrap;html=1;" parent="RcGWIeapa8aoR4nyQcu3-31" vertex="1">
          <mxGeometry y="138" width="250" height="26" as="geometry" />
        </mxCell>
        <mxCell id="RcGWIeapa8aoR4nyQcu3-38" value="+ isPathNavigable():&amp;nbsp;" style="text;strokeColor=none;fillColor=none;align=left;verticalAlign=top;spacingLeft=4;spacingRight=4;overflow=hidden;rotatable=0;points=[[0,0.5],[1,0.5]];portConstraint=eastwest;whiteSpace=wrap;html=1;" parent="RcGWIeapa8aoR4nyQcu3-31" vertex="1">
          <mxGeometry y="164" width="250" height="26" as="geometry" />
        </mxCell>
        <mxCell id="RcGWIeapa8aoR4nyQcu3-40" value="Threat" style="swimlane;fontStyle=1;align=center;verticalAlign=top;childLayout=stackLayout;horizontal=1;startSize=26;horizontalStack=0;resizeParent=1;resizeParentMax=0;resizeLast=0;collapsible=1;marginBottom=0;whiteSpace=wrap;html=1;" parent="1" vertex="1">
          <mxGeometry x="610" y="260" width="250" height="164" as="geometry" />
        </mxCell>
        <mxCell id="RcGWIeapa8aoR4nyQcu3-41" value="- : area" style="text;strokeColor=none;fillColor=none;align=left;verticalAlign=top;spacingLeft=4;spacingRight=4;overflow=hidden;rotatable=0;points=[[0,0.5],[1,0.5]];portConstraint=eastwest;whiteSpace=wrap;html=1;" parent="RcGWIeapa8aoR4nyQcu3-40" vertex="1">
          <mxGeometry y="26" width="250" height="26" as="geometry" />
        </mxCell>
        <mxCell id="RcGWIeapa8aoR4nyQcu3-57" value="- : startTime" style="text;strokeColor=none;fillColor=none;align=left;verticalAlign=top;spacingLeft=4;spacingRight=4;overflow=hidden;rotatable=0;points=[[0,0.5],[1,0.5]];portConstraint=eastwest;whiteSpace=wrap;html=1;" parent="RcGWIeapa8aoR4nyQcu3-40" vertex="1">
          <mxGeometry y="52" width="250" height="26" as="geometry" />
        </mxCell>
        <mxCell id="RcGWIeapa8aoR4nyQcu3-58" value="- : endTime" style="text;strokeColor=none;fillColor=none;align=left;verticalAlign=top;spacingLeft=4;spacingRight=4;overflow=hidden;rotatable=0;points=[[0,0.5],[1,0.5]];portConstraint=eastwest;whiteSpace=wrap;html=1;" parent="RcGWIeapa8aoR4nyQcu3-40" vertex="1">
          <mxGeometry y="78" width="250" height="26" as="geometry" />
        </mxCell>
        <mxCell id="RcGWIeapa8aoR4nyQcu3-42" value="" style="line;strokeWidth=1;fillColor=none;align=left;verticalAlign=middle;spacingTop=-1;spacingLeft=3;spacingRight=3;rotatable=0;labelPosition=right;points=[];portConstraint=eastwest;strokeColor=inherit;" parent="RcGWIeapa8aoR4nyQcu3-40" vertex="1">
          <mxGeometry y="104" width="250" height="8" as="geometry" />
        </mxCell>
        <mxCell id="RcGWIeapa8aoR4nyQcu3-46" value="+ isPointSafe():&amp;nbsp;" style="text;strokeColor=none;fillColor=none;align=left;verticalAlign=top;spacingLeft=4;spacingRight=4;overflow=hidden;rotatable=0;points=[[0,0.5],[1,0.5]];portConstraint=eastwest;whiteSpace=wrap;html=1;" parent="RcGWIeapa8aoR4nyQcu3-40" vertex="1">
          <mxGeometry y="112" width="250" height="26" as="geometry" />
        </mxCell>
        <mxCell id="RcGWIeapa8aoR4nyQcu3-47" value="+ isPathNavigable():&amp;nbsp;" style="text;strokeColor=none;fillColor=none;align=left;verticalAlign=top;spacingLeft=4;spacingRight=4;overflow=hidden;rotatable=0;points=[[0,0.5],[1,0.5]];portConstraint=eastwest;whiteSpace=wrap;html=1;" parent="RcGWIeapa8aoR4nyQcu3-40" vertex="1">
          <mxGeometry y="138" width="250" height="26" as="geometry" />
        </mxCell>
        <mxCell id="RcGWIeapa8aoR4nyQcu3-48" value="TimePeriodGrids" style="swimlane;fontStyle=1;align=center;verticalAlign=top;childLayout=stackLayout;horizontal=1;startSize=26;horizontalStack=0;resizeParent=1;resizeParentMax=0;resizeLast=0;collapsible=1;marginBottom=0;whiteSpace=wrap;html=1;" parent="1" vertex="1">
          <mxGeometry x="610" y="460" width="250" height="164" as="geometry" />
        </mxCell>
        <mxCell id="RcGWIeapa8aoR4nyQcu3-49" value="- _grids" style="text;strokeColor=none;fillColor=none;align=left;verticalAlign=top;spacingLeft=4;spacingRight=4;overflow=hidden;rotatable=0;points=[[0,0.5],[1,0.5]];portConstraint=eastwest;whiteSpace=wrap;html=1;" parent="RcGWIeapa8aoR4nyQcu3-48" vertex="1">
          <mxGeometry y="26" width="250" height="26" as="geometry" />
        </mxCell>
        <mxCell id="RcGWIeapa8aoR4nyQcu3-50" value="" style="line;strokeWidth=1;fillColor=none;align=left;verticalAlign=middle;spacingTop=-1;spacingLeft=3;spacingRight=3;rotatable=0;labelPosition=right;points=[];portConstraint=eastwest;strokeColor=inherit;" parent="RcGWIeapa8aoR4nyQcu3-48" vertex="1">
          <mxGeometry y="52" width="250" height="8" as="geometry" />
        </mxCell>
        <mxCell id="RcGWIeapa8aoR4nyQcu3-51" value="+ Init():&amp;nbsp;" style="text;strokeColor=none;fillColor=none;align=left;verticalAlign=top;spacingLeft=4;spacingRight=4;overflow=hidden;rotatable=0;points=[[0,0.5],[1,0.5]];portConstraint=eastwest;whiteSpace=wrap;html=1;" parent="RcGWIeapa8aoR4nyQcu3-48" vertex="1">
          <mxGeometry y="60" width="250" height="26" as="geometry" />
        </mxCell>
        <mxCell id="RcGWIeapa8aoR4nyQcu3-52" value="+ LoadGridData():&amp;nbsp;" style="text;strokeColor=none;fillColor=none;align=left;verticalAlign=top;spacingLeft=4;spacingRight=4;overflow=hidden;rotatable=0;points=[[0,0.5],[1,0.5]];portConstraint=eastwest;whiteSpace=wrap;html=1;" parent="RcGWIeapa8aoR4nyQcu3-48" vertex="1">
          <mxGeometry y="86" width="250" height="26" as="geometry" />
        </mxCell>
        <mxCell id="RcGWIeapa8aoR4nyQcu3-54" value="+ isPointSafe():&amp;nbsp;" style="text;strokeColor=none;fillColor=none;align=left;verticalAlign=top;spacingLeft=4;spacingRight=4;overflow=hidden;rotatable=0;points=[[0,0.5],[1,0.5]];portConstraint=eastwest;whiteSpace=wrap;html=1;" parent="RcGWIeapa8aoR4nyQcu3-48" vertex="1">
          <mxGeometry y="112" width="250" height="26" as="geometry" />
        </mxCell>
        <mxCell id="RcGWIeapa8aoR4nyQcu3-55" value="+ isPathNavigable():&amp;nbsp;" style="text;strokeColor=none;fillColor=none;align=left;verticalAlign=top;spacingLeft=4;spacingRight=4;overflow=hidden;rotatable=0;points=[[0,0.5],[1,0.5]];portConstraint=eastwest;whiteSpace=wrap;html=1;" parent="RcGWIeapa8aoR4nyQcu3-48" vertex="1">
          <mxGeometry y="138" width="250" height="26" as="geometry" />
        </mxCell>
        <mxCell id="RcGWIeapa8aoR4nyQcu3-59" value="&lt;span style=&quot;&quot;&gt;PathPlanningAlgImpl&lt;/span&gt;" style="swimlane;fontStyle=1;align=center;verticalAlign=top;childLayout=stackLayout;horizontal=1;startSize=26;horizontalStack=0;resizeParent=1;resizeParentMax=0;resizeLast=0;collapsible=1;marginBottom=0;whiteSpace=wrap;html=1;" parent="1" vertex="1">
          <mxGeometry x="270" y="24" width="250" height="606" as="geometry" />
        </mxCell>
        <mxCell id="RcGWIeapa8aoR4nyQcu3-60" value="- aboveSpeed" style="text;strokeColor=none;fillColor=none;align=left;verticalAlign=top;spacingLeft=4;spacingRight=4;overflow=hidden;rotatable=0;points=[[0,0.5],[1,0.5]];portConstraint=eastwest;whiteSpace=wrap;html=1;" parent="RcGWIeapa8aoR4nyQcu3-59" vertex="1">
          <mxGeometry y="26" width="250" height="26" as="geometry" />
        </mxCell>
        <mxCell id="RcGWIeapa8aoR4nyQcu3-67" value="- underSpeed" style="text;strokeColor=none;fillColor=none;align=left;verticalAlign=top;spacingLeft=4;spacingRight=4;overflow=hidden;rotatable=0;points=[[0,0.5],[1,0.5]];portConstraint=eastwest;whiteSpace=wrap;html=1;" parent="RcGWIeapa8aoR4nyQcu3-59" vertex="1">
          <mxGeometry y="52" width="250" height="26" as="geometry" />
        </mxCell>
        <mxCell id="RcGWIeapa8aoR4nyQcu3-68" value="- threats" style="text;strokeColor=none;fillColor=none;align=left;verticalAlign=top;spacingLeft=4;spacingRight=4;overflow=hidden;rotatable=0;points=[[0,0.5],[1,0.5]];portConstraint=eastwest;whiteSpace=wrap;html=1;" parent="RcGWIeapa8aoR4nyQcu3-59" vertex="1">
          <mxGeometry y="78" width="250" height="26" as="geometry" />
        </mxCell>
        <mxCell id="RcGWIeapa8aoR4nyQcu3-70" value="- girdObstaclesAbove" style="text;strokeColor=none;fillColor=none;align=left;verticalAlign=top;spacingLeft=4;spacingRight=4;overflow=hidden;rotatable=0;points=[[0,0.5],[1,0.5]];portConstraint=eastwest;whiteSpace=wrap;html=1;" parent="RcGWIeapa8aoR4nyQcu3-59" vertex="1">
          <mxGeometry y="104" width="250" height="26" as="geometry" />
        </mxCell>
        <mxCell id="RcGWIeapa8aoR4nyQcu3-71" value="- gridObstaclesUnder" style="text;strokeColor=none;fillColor=none;align=left;verticalAlign=top;spacingLeft=4;spacingRight=4;overflow=hidden;rotatable=0;points=[[0,0.5],[1,0.5]];portConstraint=eastwest;whiteSpace=wrap;html=1;" parent="RcGWIeapa8aoR4nyQcu3-59" vertex="1">
          <mxGeometry y="130" width="250" height="26" as="geometry" />
        </mxCell>
        <mxCell id="RcGWIeapa8aoR4nyQcu3-69" value="- gridWeather" style="text;strokeColor=none;fillColor=none;align=left;verticalAlign=top;spacingLeft=4;spacingRight=4;overflow=hidden;rotatable=0;points=[[0,0.5],[1,0.5]];portConstraint=eastwest;whiteSpace=wrap;html=1;" parent="RcGWIeapa8aoR4nyQcu3-59" vertex="1">
          <mxGeometry y="156" width="250" height="26" as="geometry" />
        </mxCell>
        <mxCell id="RcGWIeapa8aoR4nyQcu3-72" value="- Points" style="text;strokeColor=none;fillColor=none;align=left;verticalAlign=top;spacingLeft=4;spacingRight=4;overflow=hidden;rotatable=0;points=[[0,0.5],[1,0.5]];portConstraint=eastwest;whiteSpace=wrap;html=1;" parent="RcGWIeapa8aoR4nyQcu3-59" vertex="1">
          <mxGeometry y="182" width="250" height="26" as="geometry" />
        </mxCell>
        <mxCell id="RcGWIeapa8aoR4nyQcu3-73" value="- Graph" style="text;strokeColor=none;fillColor=none;align=left;verticalAlign=top;spacingLeft=4;spacingRight=4;overflow=hidden;rotatable=0;points=[[0,0.5],[1,0.5]];portConstraint=eastwest;whiteSpace=wrap;html=1;" parent="RcGWIeapa8aoR4nyQcu3-59" vertex="1">
          <mxGeometry y="208" width="250" height="26" as="geometry" />
        </mxCell>
        <mxCell id="RcGWIeapa8aoR4nyQcu3-61" value="" style="line;strokeWidth=1;fillColor=none;align=left;verticalAlign=middle;spacingTop=-1;spacingLeft=3;spacingRight=3;rotatable=0;labelPosition=right;points=[];portConstraint=eastwest;strokeColor=inherit;" parent="RcGWIeapa8aoR4nyQcu3-59" vertex="1">
          <mxGeometry y="234" width="250" height="8" as="geometry" />
        </mxCell>
        <mxCell id="RcGWIeapa8aoR4nyQcu3-62" value="+ SetMaritimeArea():&amp;nbsp;" style="text;strokeColor=none;fillColor=none;align=left;verticalAlign=top;spacingLeft=4;spacingRight=4;overflow=hidden;rotatable=0;points=[[0,0.5],[1,0.5]];portConstraint=eastwest;whiteSpace=wrap;html=1;" parent="RcGWIeapa8aoR4nyQcu3-59" vertex="1">
          <mxGeometry y="242" width="250" height="26" as="geometry" />
        </mxCell>
        <mxCell id="RcGWIeapa8aoR4nyQcu3-63" value="+ SetObsateclestArea():&amp;nbsp;" style="text;strokeColor=none;fillColor=none;align=left;verticalAlign=top;spacingLeft=4;spacingRight=4;overflow=hidden;rotatable=0;points=[[0,0.5],[1,0.5]];portConstraint=eastwest;whiteSpace=wrap;html=1;" parent="RcGWIeapa8aoR4nyQcu3-59" vertex="1">
          <mxGeometry y="268" width="250" height="26" as="geometry" />
        </mxCell>
        <mxCell id="RcGWIeapa8aoR4nyQcu3-64" value="+ SetWeatherArea():&amp;nbsp;" style="text;strokeColor=none;fillColor=none;align=left;verticalAlign=top;spacingLeft=4;spacingRight=4;overflow=hidden;rotatable=0;points=[[0,0.5],[1,0.5]];portConstraint=eastwest;whiteSpace=wrap;html=1;" parent="RcGWIeapa8aoR4nyQcu3-59" vertex="1">
          <mxGeometry y="294" width="250" height="26" as="geometry" />
        </mxCell>
        <mxCell id="RcGWIeapa8aoR4nyQcu3-106" value="+ AddThreatArea():&amp;nbsp;" style="text;strokeColor=none;fillColor=none;align=left;verticalAlign=top;spacingLeft=4;spacingRight=4;overflow=hidden;rotatable=0;points=[[0,0.5],[1,0.5]];portConstraint=eastwest;whiteSpace=wrap;html=1;" parent="RcGWIeapa8aoR4nyQcu3-59" vertex="1">
          <mxGeometry y="320" width="250" height="26" as="geometry" />
        </mxCell>
        <mxCell id="RcGWIeapa8aoR4nyQcu3-65" value="+ DeleteThreatArea():&amp;nbsp;" style="text;strokeColor=none;fillColor=none;align=left;verticalAlign=top;spacingLeft=4;spacingRight=4;overflow=hidden;rotatable=0;points=[[0,0.5],[1,0.5]];portConstraint=eastwest;whiteSpace=wrap;html=1;" parent="RcGWIeapa8aoR4nyQcu3-59" vertex="1">
          <mxGeometry y="346" width="250" height="26" as="geometry" />
        </mxCell>
        <mxCell id="RcGWIeapa8aoR4nyQcu3-107" value="+ AddChannel():&amp;nbsp;" style="text;strokeColor=none;fillColor=none;align=left;verticalAlign=top;spacingLeft=4;spacingRight=4;overflow=hidden;rotatable=0;points=[[0,0.5],[1,0.5]];portConstraint=eastwest;whiteSpace=wrap;html=1;" parent="RcGWIeapa8aoR4nyQcu3-59" vertex="1">
          <mxGeometry y="372" width="250" height="26" as="geometry" />
        </mxCell>
        <mxCell id="RcGWIeapa8aoR4nyQcu3-74" value="+ DeleteChannel():&amp;nbsp;" style="text;strokeColor=none;fillColor=none;align=left;verticalAlign=top;spacingLeft=4;spacingRight=4;overflow=hidden;rotatable=0;points=[[0,0.5],[1,0.5]];portConstraint=eastwest;whiteSpace=wrap;html=1;" parent="RcGWIeapa8aoR4nyQcu3-59" vertex="1">
          <mxGeometry y="398" width="250" height="26" as="geometry" />
        </mxCell>
        <mxCell id="RcGWIeapa8aoR4nyQcu3-66" value="+ Solve():&amp;nbsp;" style="text;strokeColor=none;fillColor=none;align=left;verticalAlign=top;spacingLeft=4;spacingRight=4;overflow=hidden;rotatable=0;points=[[0,0.5],[1,0.5]];portConstraint=eastwest;whiteSpace=wrap;html=1;" parent="RcGWIeapa8aoR4nyQcu3-59" vertex="1">
          <mxGeometry y="424" width="250" height="26" as="geometry" />
        </mxCell>
        <mxCell id="RcGWIeapa8aoR4nyQcu3-75" value="- isPointSafe():&amp;nbsp;" style="text;strokeColor=none;fillColor=none;align=left;verticalAlign=top;spacingLeft=4;spacingRight=4;overflow=hidden;rotatable=0;points=[[0,0.5],[1,0.5]];portConstraint=eastwest;whiteSpace=wrap;html=1;" parent="RcGWIeapa8aoR4nyQcu3-59" vertex="1">
          <mxGeometry y="450" width="250" height="26" as="geometry" />
        </mxCell>
        <mxCell id="RcGWIeapa8aoR4nyQcu3-76" value="- isPathSafe():&amp;nbsp;" style="text;strokeColor=none;fillColor=none;align=left;verticalAlign=top;spacingLeft=4;spacingRight=4;overflow=hidden;rotatable=0;points=[[0,0.5],[1,0.5]];portConstraint=eastwest;whiteSpace=wrap;html=1;" parent="RcGWIeapa8aoR4nyQcu3-59" vertex="1">
          <mxGeometry y="476" width="250" height="26" as="geometry" />
        </mxCell>
        <mxCell id="RcGWIeapa8aoR4nyQcu3-114" value="- calcTime():&amp;nbsp;" style="text;strokeColor=none;fillColor=none;align=left;verticalAlign=top;spacingLeft=4;spacingRight=4;overflow=hidden;rotatable=0;points=[[0,0.5],[1,0.5]];portConstraint=eastwest;whiteSpace=wrap;html=1;" parent="RcGWIeapa8aoR4nyQcu3-59" vertex="1">
          <mxGeometry y="502" width="250" height="26" as="geometry" />
        </mxCell>
        <mxCell id="RcGWIeapa8aoR4nyQcu3-77" value="- PRM():&amp;nbsp;" style="text;strokeColor=none;fillColor=none;align=left;verticalAlign=top;spacingLeft=4;spacingRight=4;overflow=hidden;rotatable=0;points=[[0,0.5],[1,0.5]];portConstraint=eastwest;whiteSpace=wrap;html=1;" parent="RcGWIeapa8aoR4nyQcu3-59" vertex="1">
          <mxGeometry y="528" width="250" height="26" as="geometry" />
        </mxCell>
        <mxCell id="RcGWIeapa8aoR4nyQcu3-78" value="- DAStar():&amp;nbsp;" style="text;strokeColor=none;fillColor=none;align=left;verticalAlign=top;spacingLeft=4;spacingRight=4;overflow=hidden;rotatable=0;points=[[0,0.5],[1,0.5]];portConstraint=eastwest;whiteSpace=wrap;html=1;" parent="RcGWIeapa8aoR4nyQcu3-59" vertex="1">
          <mxGeometry y="554" width="250" height="26" as="geometry" />
        </mxCell>
        <mxCell id="RcGWIeapa8aoR4nyQcu3-79" value="- DAStarPeturn():&amp;nbsp;" style="text;strokeColor=none;fillColor=none;align=left;verticalAlign=top;spacingLeft=4;spacingRight=4;overflow=hidden;rotatable=0;points=[[0,0.5],[1,0.5]];portConstraint=eastwest;whiteSpace=wrap;html=1;" parent="RcGWIeapa8aoR4nyQcu3-59" vertex="1">
          <mxGeometry y="580" width="250" height="26" as="geometry" />
        </mxCell>
        <mxCell id="RcGWIeapa8aoR4nyQcu3-81" value="&lt;i&gt;PathPlanningAlgInterface&lt;/i&gt;" style="swimlane;fontStyle=1;align=center;verticalAlign=top;childLayout=stackLayout;horizontal=1;startSize=26;horizontalStack=0;resizeParent=1;resizeParentMax=0;resizeLast=0;collapsible=1;marginBottom=0;whiteSpace=wrap;html=1;" parent="1" vertex="1">
          <mxGeometry x="-50" y="24" width="250" height="294" as="geometry" />
        </mxCell>
        <mxCell id="RcGWIeapa8aoR4nyQcu3-83" value="- SolveResult" style="text;strokeColor=none;fillColor=none;align=left;verticalAlign=top;spacingLeft=4;spacingRight=4;overflow=hidden;rotatable=0;points=[[0,0.5],[1,0.5]];portConstraint=eastwest;whiteSpace=wrap;html=1;" parent="RcGWIeapa8aoR4nyQcu3-81" vertex="1">
          <mxGeometry y="26" width="250" height="26" as="geometry" />
        </mxCell>
        <mxCell id="RcGWIeapa8aoR4nyQcu3-90" value="" style="line;strokeWidth=1;fillColor=none;align=left;verticalAlign=middle;spacingTop=-1;spacingLeft=3;spacingRight=3;rotatable=0;labelPosition=right;points=[];portConstraint=eastwest;strokeColor=inherit;" parent="RcGWIeapa8aoR4nyQcu3-81" vertex="1">
          <mxGeometry y="52" width="250" height="8" as="geometry" />
        </mxCell>
        <mxCell id="RcGWIeapa8aoR4nyQcu3-102" value="+ Init(): PathPlanningAlgInterface*" style="text;strokeColor=none;fillColor=none;align=left;verticalAlign=top;spacingLeft=4;spacingRight=4;overflow=hidden;rotatable=0;points=[[0,0.5],[1,0.5]];portConstraint=eastwest;whiteSpace=wrap;html=1;" parent="RcGWIeapa8aoR4nyQcu3-81" vertex="1">
          <mxGeometry y="60" width="250" height="26" as="geometry" />
        </mxCell>
        <mxCell id="RcGWIeapa8aoR4nyQcu3-91" value="+ SetMaritimeArea():&amp;nbsp;" style="text;strokeColor=none;fillColor=none;align=left;verticalAlign=top;spacingLeft=4;spacingRight=4;overflow=hidden;rotatable=0;points=[[0,0.5],[1,0.5]];portConstraint=eastwest;whiteSpace=wrap;html=1;" parent="RcGWIeapa8aoR4nyQcu3-81" vertex="1">
          <mxGeometry y="86" width="250" height="26" as="geometry" />
        </mxCell>
        <mxCell id="RcGWIeapa8aoR4nyQcu3-92" value="+ SetObsateclestArea():&amp;nbsp;" style="text;strokeColor=none;fillColor=none;align=left;verticalAlign=top;spacingLeft=4;spacingRight=4;overflow=hidden;rotatable=0;points=[[0,0.5],[1,0.5]];portConstraint=eastwest;whiteSpace=wrap;html=1;" parent="RcGWIeapa8aoR4nyQcu3-81" vertex="1">
          <mxGeometry y="112" width="250" height="26" as="geometry" />
        </mxCell>
        <mxCell id="RcGWIeapa8aoR4nyQcu3-93" value="+ SetWeatherArea():&amp;nbsp;" style="text;strokeColor=none;fillColor=none;align=left;verticalAlign=top;spacingLeft=4;spacingRight=4;overflow=hidden;rotatable=0;points=[[0,0.5],[1,0.5]];portConstraint=eastwest;whiteSpace=wrap;html=1;" parent="RcGWIeapa8aoR4nyQcu3-81" vertex="1">
          <mxGeometry y="138" width="250" height="26" as="geometry" />
        </mxCell>
        <mxCell id="RcGWIeapa8aoR4nyQcu3-103" value="+ AddThreatArea():&amp;nbsp;" style="text;strokeColor=none;fillColor=none;align=left;verticalAlign=top;spacingLeft=4;spacingRight=4;overflow=hidden;rotatable=0;points=[[0,0.5],[1,0.5]];portConstraint=eastwest;whiteSpace=wrap;html=1;" parent="RcGWIeapa8aoR4nyQcu3-81" vertex="1">
          <mxGeometry y="164" width="250" height="26" as="geometry" />
        </mxCell>
        <mxCell id="RcGWIeapa8aoR4nyQcu3-94" value="+ DeleteThreatArea():&amp;nbsp;" style="text;strokeColor=none;fillColor=none;align=left;verticalAlign=top;spacingLeft=4;spacingRight=4;overflow=hidden;rotatable=0;points=[[0,0.5],[1,0.5]];portConstraint=eastwest;whiteSpace=wrap;html=1;" parent="RcGWIeapa8aoR4nyQcu3-81" vertex="1">
          <mxGeometry y="190" width="250" height="26" as="geometry" />
        </mxCell>
        <mxCell id="RcGWIeapa8aoR4nyQcu3-104" value="+ AddChannel():&amp;nbsp;" style="text;strokeColor=none;fillColor=none;align=left;verticalAlign=top;spacingLeft=4;spacingRight=4;overflow=hidden;rotatable=0;points=[[0,0.5],[1,0.5]];portConstraint=eastwest;whiteSpace=wrap;html=1;" parent="RcGWIeapa8aoR4nyQcu3-81" vertex="1">
          <mxGeometry y="216" width="250" height="26" as="geometry" />
        </mxCell>
        <mxCell id="RcGWIeapa8aoR4nyQcu3-95" value="+ DeleteChannel():&amp;nbsp;" style="text;strokeColor=none;fillColor=none;align=left;verticalAlign=top;spacingLeft=4;spacingRight=4;overflow=hidden;rotatable=0;points=[[0,0.5],[1,0.5]];portConstraint=eastwest;whiteSpace=wrap;html=1;" parent="RcGWIeapa8aoR4nyQcu3-81" vertex="1">
          <mxGeometry y="242" width="250" height="26" as="geometry" />
        </mxCell>
        <mxCell id="RcGWIeapa8aoR4nyQcu3-96" value="+ Solve():&amp;nbsp;" style="text;strokeColor=none;fillColor=none;align=left;verticalAlign=top;spacingLeft=4;spacingRight=4;overflow=hidden;rotatable=0;points=[[0,0.5],[1,0.5]];portConstraint=eastwest;whiteSpace=wrap;html=1;" parent="RcGWIeapa8aoR4nyQcu3-81" vertex="1">
          <mxGeometry y="268" width="250" height="26" as="geometry" />
        </mxCell>
        <mxCell id="RcGWIeapa8aoR4nyQcu3-112" value="Extends" style="endArrow=block;endSize=16;endFill=0;html=1;rounded=0;exitX=0;exitY=0.028;exitDx=0;exitDy=0;exitPerimeter=0;entryX=0.994;entryY=-0.093;entryDx=0;entryDy=0;entryPerimeter=0;" parent="1" source="RcGWIeapa8aoR4nyQcu3-59" target="RcGWIeapa8aoR4nyQcu3-83" edge="1">
          <mxGeometry width="160" relative="1" as="geometry">
            <mxPoint x="260" y="170" as="sourcePoint" />
            <mxPoint x="210" y="40" as="targetPoint" />
          </mxGeometry>
        </mxCell>
        <mxCell id="RcGWIeapa8aoR4nyQcu3-115" value="Use" style="endArrow=open;endSize=12;dashed=1;html=1;rounded=0;exitX=0.559;exitY=1.046;exitDx=0;exitDy=0;exitPerimeter=0;" parent="1" source="RcGWIeapa8aoR4nyQcu3-38" target="RcGWIeapa8aoR4nyQcu3-40" edge="1">
          <mxGeometry width="160" relative="1" as="geometry">
            <mxPoint x="840" y="70" as="sourcePoint" />
            <mxPoint x="920" y="70" as="targetPoint" />
          </mxGeometry>
        </mxCell>
        <mxCell id="RcGWIeapa8aoR4nyQcu3-116" value="Use" style="endArrow=open;endSize=12;dashed=1;html=1;rounded=0;" parent="1" edge="1">
          <mxGeometry width="160" relative="1" as="geometry">
            <mxPoint x="520" y="118.5" as="sourcePoint" />
            <mxPoint x="600" y="118.5" as="targetPoint" />
          </mxGeometry>
        </mxCell>
        <mxCell id="RcGWIeapa8aoR4nyQcu3-117" value="Use" style="endArrow=open;endSize=12;dashed=1;html=1;rounded=0;entryX=-0.009;entryY=0.112;entryDx=0;entryDy=0;entryPerimeter=0;" parent="1" target="RcGWIeapa8aoR4nyQcu3-48" edge="1">
          <mxGeometry width="160" relative="1" as="geometry">
            <mxPoint x="520" y="160" as="sourcePoint" />
            <mxPoint x="600" y="160" as="targetPoint" />
          </mxGeometry>
        </mxCell>
        <mxCell id="ZPE5ZwEm5JQT3JPqB8p0-5" value="" style="edgeStyle=orthogonalEdgeStyle;rounded=0;orthogonalLoop=1;jettySize=auto;html=1;" edge="1" parent="1" source="ZPE5ZwEm5JQT3JPqB8p0-1" target="ZPE5ZwEm5JQT3JPqB8p0-2">
          <mxGeometry relative="1" as="geometry" />
        </mxCell>
        <mxCell id="ZPE5ZwEm5JQT3JPqB8p0-1" value="记录节点到达时间" style="rounded=0;whiteSpace=wrap;html=1;" vertex="1" parent="1">
          <mxGeometry x="-595" y="630" width="120" height="60" as="geometry" />
        </mxCell>
        <mxCell id="ZPE5ZwEm5JQT3JPqB8p0-4" style="edgeStyle=orthogonalEdgeStyle;rounded=0;orthogonalLoop=1;jettySize=auto;html=1;exitX=0.5;exitY=1;exitDx=0;exitDy=0;" edge="1" parent="1" source="ZPE5ZwEm5JQT3JPqB8p0-2" target="ZPE5ZwEm5JQT3JPqB8p0-3">
          <mxGeometry relative="1" as="geometry" />
        </mxCell>
        <mxCell id="ZPE5ZwEm5JQT3JPqB8p0-8" value="白天水下航态" style="edgeLabel;html=1;align=center;verticalAlign=middle;resizable=0;points=[];" vertex="1" connectable="0" parent="ZPE5ZwEm5JQT3JPqB8p0-4">
          <mxGeometry x="-0.24" relative="1" as="geometry">
            <mxPoint as="offset" />
          </mxGeometry>
        </mxCell>
        <mxCell id="ZPE5ZwEm5JQT3JPqB8p0-10" style="edgeStyle=orthogonalEdgeStyle;rounded=0;orthogonalLoop=1;jettySize=auto;html=1;exitX=1;exitY=0.5;exitDx=0;exitDy=0;entryX=0;entryY=0.5;entryDx=0;entryDy=0;" edge="1" parent="1" source="ZPE5ZwEm5JQT3JPqB8p0-2" target="ZPE5ZwEm5JQT3JPqB8p0-9">
          <mxGeometry relative="1" as="geometry" />
        </mxCell>
        <mxCell id="ZPE5ZwEm5JQT3JPqB8p0-11" value="夜晚水上航态" style="edgeLabel;html=1;align=center;verticalAlign=middle;resizable=0;points=[];" vertex="1" connectable="0" parent="ZPE5ZwEm5JQT3JPqB8p0-10">
          <mxGeometry x="-0.424" y="1" relative="1" as="geometry">
            <mxPoint as="offset" />
          </mxGeometry>
        </mxCell>
        <mxCell id="ZPE5ZwEm5JQT3JPqB8p0-2" value="根据时间判断航态" style="rhombus;whiteSpace=wrap;html=1;" vertex="1" parent="1">
          <mxGeometry x="-600" y="730" width="130" height="80" as="geometry" />
        </mxCell>
        <mxCell id="ZPE5ZwEm5JQT3JPqB8p0-16" style="edgeStyle=orthogonalEdgeStyle;rounded=0;orthogonalLoop=1;jettySize=auto;html=1;exitX=0.5;exitY=1;exitDx=0;exitDy=0;entryX=0;entryY=0.5;entryDx=0;entryDy=0;" edge="1" parent="1" source="ZPE5ZwEm5JQT3JPqB8p0-3" target="ZPE5ZwEm5JQT3JPqB8p0-15">
          <mxGeometry relative="1" as="geometry" />
        </mxCell>
        <mxCell id="ZPE5ZwEm5JQT3JPqB8p0-3" value="检测水下静态障碍区" style="rounded=0;whiteSpace=wrap;html=1;" vertex="1" parent="1">
          <mxGeometry x="-595" y="870" width="120" height="60" as="geometry" />
        </mxCell>
        <mxCell id="ZPE5ZwEm5JQT3JPqB8p0-14" style="edgeStyle=orthogonalEdgeStyle;rounded=0;orthogonalLoop=1;jettySize=auto;html=1;exitX=0.5;exitY=1;exitDx=0;exitDy=0;entryX=0.5;entryY=0;entryDx=0;entryDy=0;" edge="1" parent="1" source="ZPE5ZwEm5JQT3JPqB8p0-9" target="ZPE5ZwEm5JQT3JPqB8p0-12">
          <mxGeometry relative="1" as="geometry" />
        </mxCell>
        <mxCell id="ZPE5ZwEm5JQT3JPqB8p0-9" value="检查水上静态障碍区、威胁区、气象区" style="rounded=0;whiteSpace=wrap;html=1;" vertex="1" parent="1">
          <mxGeometry x="-340" y="740" width="120" height="60" as="geometry" />
        </mxCell>
        <mxCell id="ZPE5ZwEm5JQT3JPqB8p0-17" style="edgeStyle=orthogonalEdgeStyle;rounded=0;orthogonalLoop=1;jettySize=auto;html=1;exitX=0.5;exitY=1;exitDx=0;exitDy=0;entryX=0.5;entryY=0;entryDx=0;entryDy=0;" edge="1" parent="1" source="ZPE5ZwEm5JQT3JPqB8p0-12" target="ZPE5ZwEm5JQT3JPqB8p0-15">
          <mxGeometry relative="1" as="geometry" />
        </mxCell>
        <mxCell id="ZPE5ZwEm5JQT3JPqB8p0-12" value="根据危险等级决定是否通过" style="rounded=0;whiteSpace=wrap;html=1;" vertex="1" parent="1">
          <mxGeometry x="-340" y="820" width="120" height="60" as="geometry" />
        </mxCell>
        <mxCell id="ZPE5ZwEm5JQT3JPqB8p0-15" value="完成该点的一条出边的搜素" style="rounded=0;whiteSpace=wrap;html=1;" vertex="1" parent="1">
          <mxGeometry x="-440" y="950" width="120" height="60" as="geometry" />
        </mxCell>
      </root>
    </mxGraphModel>
  </diagram>
</mxfile>
